<svg width="484" height="53" viewBox="0 0 484 53" fill="none" xmlns="http://www.w3.org/2000/svg">
<path d="M0 22.432H21.3213L34.6243 9L57.4035 32L80.1826 9L102.962 32L125.741 9L148.52 32L157.996 22.432H182" stroke="white" stroke-width="1.1"/>
<path d="M294 22.8416H326C327.833 14.6749 334.2 -1.05844 345 1.34156C358.5 4.34156 359 42.8416 352 50.8416C345 58.8416 341.5 6.34155 367 1.34156C392.5 -3.65842 379.5 47.8416 377 50.8416C374.5 53.8416 367 3.84155 396 1.34156C425 -1.15842 405 60.8416 402 50.8416C399 40.8416 404.5 1.34156 423.5 1.34156C442.5 1.34156 434 62.8416 430 50.8416C426.8 41.2416 434.667 28.1749 439 22.8416H483.5" stroke="white"/>
</svg>
