<svg width="396" height="53" viewBox="0 0 396 53" fill="none" xmlns="http://www.w3.org/2000/svg">
<path d="M0 28.432H21.3213L34.6243 15L57.4035 38L80.1826 15L102.962 38L125.741 15L148.52 38L157.996 28.432H182" stroke="white" stroke-width="1.1"/>
<path d="M206 22.8416H238C239.833 14.6749 246.2 -1.05844 257 1.34156C270.5 4.34156 271 42.8416 264 50.8416C257 58.8416 253.5 6.34155 279 1.34156C304.5 -3.65842 291.5 47.8416 289 50.8416C286.5 53.8416 279 3.84155 308 1.34156C337 -1.15842 317 60.8416 314 50.8416C311 40.8416 316.5 1.34156 335.5 1.34156C354.5 1.34156 346 62.8416 342 50.8416C338.8 41.2416 346.667 28.1749 351 22.8416H395.5" stroke="white"/>
</svg>
