<?xml version="1.0" encoding="utf-8"?>
<!-- Svg Vector Icons : http://www.onlinewebfonts.com/icon -->
<!DOCTYPE svg PUBLIC "-//W3C//DTD SVG 1.1//EN" "http://www.w3.org/Graphics/SVG/1.1/DTD/svg11.dtd">
<svg version="1.1" xmlns="http://www.w3.org/2000/svg" xmlns:xlink="http://www.w3.org/1999/xlink" x="0px" y="0px" viewBox="0 0 256 256" enable-background="new 0 0 256 256" xml:space="preserve">
<metadata> Svg Vector Icons : http://www.onlinewebfonts.com/icon </metadata>
<g><g><g><path fill="#000000" d="M158.3,10.7c-0.4,0.4-0.8,1.2-0.8,1.8c0,1.9-2.4,7.8-4.7,11.9c-2.9,4.9-7.8,11.8-16.2,22.4c-19.4,24.6-25.4,34.5-28,46.5c-1.3,5.8-0.8,18,0.9,24.3c5.7,20.3,22.2,35.2,42.8,38.5c5.4,0.9,16.2,0.4,21.3-1c15.2-4.1,27.4-14.2,34.2-28.2c3.1-6.3,4.3-10.8,5-18.2c1-10.3-0.8-18.9-6.3-29.3c-4-7.6-9.3-15-21.1-29.7c-5.8-7.2-12-15.2-13.7-17.7c-4.1-5.8-8.4-14.1-9.2-17.9c-0.3-1.6-0.8-3.2-1.1-3.5C160.7,9.7,159.3,9.8,158.3,10.7z"/><path fill="#000000" d="M12.3,143.1c-0.7,0.4-1.5,1.3-1.9,2.1c-0.4,1-0.5,11.1-0.4,37.9l0.1,36.6l1.4,1.2c1.4,1.2,1.5,1.2,11.9,1.2c10.4,0,10.5,0,11.9-1.2l1.4-1.2l0.1-36.6c0.1-26.9,0-36.9-0.4-37.9c-1-2.5-2.4-2.8-13.1-2.8C15.9,142.4,13.3,142.5,12.3,143.1z"/><path fill="#000000" d="M77.8,147.5c-10.3,1.3-28.2,5.2-31.5,6.9c-2.4,1.2-2.4,1.6-2.4,27.9c0,26.9,0,26.7,2.9,28.2c0.7,0.3,3,0.8,5,1c7.5,0.7,10.1,1.8,36.4,14.4c31.3,15.1,40.4,18.9,46.2,19.9c5,0.8,12.4,0.1,36.8-3.7c11.1-1.7,22.2-3.4,24.8-3.7c7.2-0.8,10.2-2.3,25-12.1c18.8-12.5,23.4-16.5,24.8-21.7c0.7-3,0.2-4.5-1.8-5.4c-0.9-0.4-1.7-0.8-1.7-1c0-0.1,0.6-1.1,1.4-2.1c2.2-2.9,2.6-3.9,2.3-6.1c-0.5-2.8-3.2-5.4-6.8-6.5c-7.3-2.3-17,0.9-25.3,8.3c-7.7,6.8-13.5,9.3-25.7,10.9c-13.3,1.8-25.6,1.8-33.2,0c-1.9-0.4-6.5-2.1-10.3-3.6c-3.8-1.6-7.8-3.2-8.9-3.6l-2-0.7l2.5-0.4c1.4-0.2,4.8-0.4,7.6-0.4c6-0.1,27.8,1,35.7,1.7c12.9,1.1,13.1,1.1,15.8-0.1c3.2-1.4,6.2-4.6,8.1-8.7c1.8-4,1.8-6.4,0.1-9.6c-2.5-4.5-6.3-6.6-16.6-9.3c-8.2-2.1-16.5-3.3-28.8-4.4c-6.2-0.5-12.3-1.2-13.5-1.5c-1.3-0.3-6.5-2.5-11.5-4.9c-9.9-4.8-17.2-7.4-24.5-8.9C102,146.9,85.9,146.5,77.8,147.5z"/></g></g></g>
</svg>